<mxfile host="Electron" agent="Mozilla/5.0 (Windows NT 10.0; Win64; x64) AppleWebKit/537.36 (KHTML, like Gecko) draw.io/26.0.16 Chrome/132.0.6834.196 Electron/34.2.0 Safari/537.36" version="26.0.16">
  <diagram name="Page-1" id="yzooJyFhMbGRmJkW589Z">
    <mxGraphModel dx="1050" dy="1721" grid="1" gridSize="10" guides="1" tooltips="1" connect="1" arrows="1" fold="1" page="1" pageScale="1" pageWidth="850" pageHeight="1100" math="0" shadow="0">
      <root>
        <mxCell id="0" />
        <mxCell id="1" parent="0" />
        <mxCell id="AStizRgjIIhvbvNj2Oiw-16" value="" style="rounded=1;whiteSpace=wrap;html=1;fillColor=none;dashed=1;" parent="1" vertex="1">
          <mxGeometry x="250" y="795" width="160" height="90" as="geometry" />
        </mxCell>
        <mxCell id="SbOnOfFyA7kID5ACk3es-117" value="" style="rounded=1;whiteSpace=wrap;html=1;fillColor=none;dashed=1;" parent="1" vertex="1">
          <mxGeometry x="460" width="210" height="130" as="geometry" />
        </mxCell>
        <mxCell id="SbOnOfFyA7kID5ACk3es-105" value="" style="rounded=1;whiteSpace=wrap;html=1;fillColor=none;dashed=1;" parent="1" vertex="1">
          <mxGeometry x="235" y="470" width="125" height="150" as="geometry" />
        </mxCell>
        <mxCell id="SbOnOfFyA7kID5ACk3es-76" value="" style="rounded=1;whiteSpace=wrap;html=1;fillColor=none;dashed=1;" parent="1" vertex="1">
          <mxGeometry x="540" y="180" width="120" height="150" as="geometry" />
        </mxCell>
        <mxCell id="SbOnOfFyA7kID5ACk3es-4" style="edgeStyle=orthogonalEdgeStyle;rounded=0;orthogonalLoop=1;jettySize=auto;html=1;exitX=0.5;exitY=0;exitDx=0;exitDy=0;entryX=1;entryY=0.5;entryDx=0;entryDy=0;" parent="1" source="SbOnOfFyA7kID5ACk3es-1" target="SbOnOfFyA7kID5ACk3es-2" edge="1">
          <mxGeometry relative="1" as="geometry">
            <Array as="points">
              <mxPoint x="390" y="190" />
              <mxPoint x="390" y="140" />
            </Array>
          </mxGeometry>
        </mxCell>
        <mxCell id="SbOnOfFyA7kID5ACk3es-8" style="edgeStyle=orthogonalEdgeStyle;rounded=0;orthogonalLoop=1;jettySize=auto;html=1;exitX=0.5;exitY=0;exitDx=0;exitDy=0;entryX=1;entryY=0.5;entryDx=0;entryDy=0;" parent="1" source="SbOnOfFyA7kID5ACk3es-1" target="SbOnOfFyA7kID5ACk3es-6" edge="1">
          <mxGeometry relative="1" as="geometry">
            <Array as="points">
              <mxPoint x="390" y="190" />
              <mxPoint x="390" y="90" />
            </Array>
          </mxGeometry>
        </mxCell>
        <mxCell id="SbOnOfFyA7kID5ACk3es-19" style="edgeStyle=orthogonalEdgeStyle;rounded=0;orthogonalLoop=1;jettySize=auto;html=1;exitX=0.75;exitY=0;exitDx=0;exitDy=0;entryX=0;entryY=0.5;entryDx=0;entryDy=0;" parent="1" source="SbOnOfFyA7kID5ACk3es-1" target="SbOnOfFyA7kID5ACk3es-16" edge="1">
          <mxGeometry relative="1" as="geometry" />
        </mxCell>
        <mxCell id="SbOnOfFyA7kID5ACk3es-25" style="edgeStyle=orthogonalEdgeStyle;rounded=0;orthogonalLoop=1;jettySize=auto;html=1;exitX=0;exitY=0.5;exitDx=0;exitDy=0;entryX=0.5;entryY=0;entryDx=0;entryDy=0;" parent="1" source="SbOnOfFyA7kID5ACk3es-1" target="SbOnOfFyA7kID5ACk3es-23" edge="1">
          <mxGeometry relative="1" as="geometry" />
        </mxCell>
        <mxCell id="SbOnOfFyA7kID5ACk3es-47" style="edgeStyle=orthogonalEdgeStyle;rounded=0;orthogonalLoop=1;jettySize=auto;html=1;exitX=0.5;exitY=1;exitDx=0;exitDy=0;entryX=0.5;entryY=0;entryDx=0;entryDy=0;" parent="1" source="SbOnOfFyA7kID5ACk3es-1" target="SbOnOfFyA7kID5ACk3es-46" edge="1">
          <mxGeometry relative="1" as="geometry" />
        </mxCell>
        <mxCell id="SbOnOfFyA7kID5ACk3es-87" style="edgeStyle=orthogonalEdgeStyle;rounded=0;orthogonalLoop=1;jettySize=auto;html=1;exitX=1;exitY=0.5;exitDx=0;exitDy=0;entryX=0;entryY=0.5;entryDx=0;entryDy=0;" parent="1" source="SbOnOfFyA7kID5ACk3es-1" target="SbOnOfFyA7kID5ACk3es-27" edge="1">
          <mxGeometry relative="1" as="geometry" />
        </mxCell>
        <mxCell id="SbOnOfFyA7kID5ACk3es-88" style="edgeStyle=orthogonalEdgeStyle;rounded=0;orthogonalLoop=1;jettySize=auto;html=1;exitX=1;exitY=0.5;exitDx=0;exitDy=0;entryX=0;entryY=0.5;entryDx=0;entryDy=0;" parent="1" source="SbOnOfFyA7kID5ACk3es-1" target="SbOnOfFyA7kID5ACk3es-7" edge="1">
          <mxGeometry relative="1" as="geometry" />
        </mxCell>
        <mxCell id="AStizRgjIIhvbvNj2Oiw-12" style="edgeStyle=orthogonalEdgeStyle;rounded=0;orthogonalLoop=1;jettySize=auto;html=1;exitX=0;exitY=0.5;exitDx=0;exitDy=0;entryX=0.5;entryY=0;entryDx=0;entryDy=0;" parent="1" source="SbOnOfFyA7kID5ACk3es-1" target="AStizRgjIIhvbvNj2Oiw-11" edge="1">
          <mxGeometry relative="1" as="geometry" />
        </mxCell>
        <mxCell id="SbOnOfFyA7kID5ACk3es-1" value="Beagle" style="rounded=1;whiteSpace=wrap;html=1;" parent="1" vertex="1">
          <mxGeometry x="360" y="190" width="120" height="60" as="geometry" />
        </mxCell>
        <mxCell id="SbOnOfFyA7kID5ACk3es-2" value="OLED SCREEN #1" style="rounded=1;whiteSpace=wrap;html=1;" parent="1" vertex="1">
          <mxGeometry x="230" y="120" width="70" height="40" as="geometry" />
        </mxCell>
        <mxCell id="SbOnOfFyA7kID5ACk3es-6" value="OLED SCREEN #2" style="rounded=1;whiteSpace=wrap;html=1;" parent="1" vertex="1">
          <mxGeometry x="230" y="70" width="70" height="40" as="geometry" />
        </mxCell>
        <mxCell id="SbOnOfFyA7kID5ACk3es-7" value="OLED SCREEN #3" style="rounded=1;whiteSpace=wrap;html=1;" parent="1" vertex="1">
          <mxGeometry x="560" y="265" width="70" height="40" as="geometry" />
        </mxCell>
        <mxCell id="SbOnOfFyA7kID5ACk3es-11" value="DC Motor 1" style="rounded=1;whiteSpace=wrap;html=1;" parent="1" vertex="1">
          <mxGeometry x="585" y="20" width="60" height="40" as="geometry" />
        </mxCell>
        <mxCell id="SbOnOfFyA7kID5ACk3es-12" value="DC Motor 2" style="rounded=1;whiteSpace=wrap;html=1;" parent="1" vertex="1">
          <mxGeometry x="585" y="70" width="60" height="40" as="geometry" />
        </mxCell>
        <mxCell id="AStizRgjIIhvbvNj2Oiw-1" style="edgeStyle=orthogonalEdgeStyle;rounded=0;orthogonalLoop=1;jettySize=auto;html=1;exitX=1;exitY=0.5;exitDx=0;exitDy=0;entryX=0;entryY=0.5;entryDx=0;entryDy=0;" parent="1" source="SbOnOfFyA7kID5ACk3es-16" target="SbOnOfFyA7kID5ACk3es-12" edge="1">
          <mxGeometry relative="1" as="geometry" />
        </mxCell>
        <mxCell id="AStizRgjIIhvbvNj2Oiw-2" style="edgeStyle=orthogonalEdgeStyle;rounded=0;orthogonalLoop=1;jettySize=auto;html=1;exitX=1;exitY=0.5;exitDx=0;exitDy=0;entryX=0;entryY=0.5;entryDx=0;entryDy=0;" parent="1" source="SbOnOfFyA7kID5ACk3es-16" target="SbOnOfFyA7kID5ACk3es-11" edge="1">
          <mxGeometry relative="1" as="geometry" />
        </mxCell>
        <mxCell id="SbOnOfFyA7kID5ACk3es-16" value="H Bridge Driver" style="rounded=1;whiteSpace=wrap;html=1;" parent="1" vertex="1">
          <mxGeometry x="480" y="45" width="70" height="40" as="geometry" />
        </mxCell>
        <mxCell id="SbOnOfFyA7kID5ACk3es-21" value="GPIO" style="text;html=1;align=center;verticalAlign=middle;whiteSpace=wrap;rounded=0;" parent="1" vertex="1">
          <mxGeometry x="400" y="40" width="80" height="30" as="geometry" />
        </mxCell>
        <mxCell id="SbOnOfFyA7kID5ACk3es-23" value="Buzzer&lt;div&gt;(KC1206)&lt;/div&gt;" style="rounded=1;whiteSpace=wrap;html=1;" parent="1" vertex="1">
          <mxGeometry x="205" y="290" width="60" height="50" as="geometry" />
        </mxCell>
        <mxCell id="SbOnOfFyA7kID5ACk3es-26" value="GPIO" style="text;html=1;align=center;verticalAlign=middle;whiteSpace=wrap;rounded=0;" parent="1" vertex="1">
          <mxGeometry x="235" y="220" width="60" height="30" as="geometry" />
        </mxCell>
        <mxCell id="SbOnOfFyA7kID5ACk3es-27" value="Gyro Scope&lt;br&gt;(MPU6050)" style="rounded=1;whiteSpace=wrap;html=1;" parent="1" vertex="1">
          <mxGeometry x="560" y="200" width="80" height="40" as="geometry" />
        </mxCell>
        <mxCell id="SbOnOfFyA7kID5ACk3es-29" value="I2C Bus #1" style="text;html=1;align=center;verticalAlign=middle;whiteSpace=wrap;rounded=0;" parent="1" vertex="1">
          <mxGeometry x="560" y="150" width="70" height="30" as="geometry" />
        </mxCell>
        <mxCell id="SbOnOfFyA7kID5ACk3es-64" style="edgeStyle=orthogonalEdgeStyle;rounded=0;orthogonalLoop=1;jettySize=auto;html=1;exitX=0;exitY=0.75;exitDx=0;exitDy=0;entryX=0.5;entryY=0;entryDx=0;entryDy=0;" parent="1" source="SbOnOfFyA7kID5ACk3es-30" target="SbOnOfFyA7kID5ACk3es-63" edge="1">
          <mxGeometry relative="1" as="geometry" />
        </mxCell>
        <mxCell id="SbOnOfFyA7kID5ACk3es-85" style="edgeStyle=orthogonalEdgeStyle;rounded=0;orthogonalLoop=1;jettySize=auto;html=1;exitX=1;exitY=0.5;exitDx=0;exitDy=0;entryX=0;entryY=0.5;entryDx=0;entryDy=0;" parent="1" source="SbOnOfFyA7kID5ACk3es-30" target="SbOnOfFyA7kID5ACk3es-83" edge="1">
          <mxGeometry relative="1" as="geometry" />
        </mxCell>
        <mxCell id="SbOnOfFyA7kID5ACk3es-86" style="edgeStyle=orthogonalEdgeStyle;rounded=0;orthogonalLoop=1;jettySize=auto;html=1;exitX=1;exitY=0.5;exitDx=0;exitDy=0;entryX=0;entryY=0.5;entryDx=0;entryDy=0;" parent="1" source="SbOnOfFyA7kID5ACk3es-30" target="SbOnOfFyA7kID5ACk3es-82" edge="1">
          <mxGeometry relative="1" as="geometry" />
        </mxCell>
        <mxCell id="SbOnOfFyA7kID5ACk3es-109" style="edgeStyle=orthogonalEdgeStyle;rounded=0;orthogonalLoop=1;jettySize=auto;html=1;exitX=0.25;exitY=0;exitDx=0;exitDy=0;entryX=1;entryY=0.5;entryDx=0;entryDy=0;" parent="1" source="SbOnOfFyA7kID5ACk3es-30" target="SbOnOfFyA7kID5ACk3es-103" edge="1">
          <mxGeometry relative="1" as="geometry" />
        </mxCell>
        <mxCell id="SbOnOfFyA7kID5ACk3es-110" style="edgeStyle=orthogonalEdgeStyle;rounded=0;orthogonalLoop=1;jettySize=auto;html=1;exitX=0.25;exitY=0;exitDx=0;exitDy=0;entryX=1;entryY=0.5;entryDx=0;entryDy=0;" parent="1" source="SbOnOfFyA7kID5ACk3es-30" target="SbOnOfFyA7kID5ACk3es-104" edge="1">
          <mxGeometry relative="1" as="geometry" />
        </mxCell>
        <mxCell id="AStizRgjIIhvbvNj2Oiw-10" style="edgeStyle=orthogonalEdgeStyle;rounded=0;orthogonalLoop=1;jettySize=auto;html=1;exitX=0.75;exitY=0;exitDx=0;exitDy=0;entryX=0;entryY=0.5;entryDx=0;entryDy=0;" parent="1" source="SbOnOfFyA7kID5ACk3es-30" target="AStizRgjIIhvbvNj2Oiw-8" edge="1">
          <mxGeometry relative="1" as="geometry" />
        </mxCell>
        <mxCell id="AStizRgjIIhvbvNj2Oiw-18" style="edgeStyle=orthogonalEdgeStyle;rounded=0;orthogonalLoop=1;jettySize=auto;html=1;exitX=0.25;exitY=1;exitDx=0;exitDy=0;entryX=0.5;entryY=0;entryDx=0;entryDy=0;" parent="1" source="SbOnOfFyA7kID5ACk3es-30" target="AStizRgjIIhvbvNj2Oiw-15" edge="1">
          <mxGeometry relative="1" as="geometry">
            <Array as="points">
              <mxPoint x="390" y="770" />
              <mxPoint x="360" y="770" />
            </Array>
          </mxGeometry>
        </mxCell>
        <mxCell id="AStizRgjIIhvbvNj2Oiw-19" style="edgeStyle=orthogonalEdgeStyle;rounded=0;orthogonalLoop=1;jettySize=auto;html=1;exitX=0.25;exitY=1;exitDx=0;exitDy=0;entryX=0.5;entryY=0;entryDx=0;entryDy=0;" parent="1" source="SbOnOfFyA7kID5ACk3es-30" target="AStizRgjIIhvbvNj2Oiw-14" edge="1">
          <mxGeometry relative="1" as="geometry">
            <Array as="points">
              <mxPoint x="390" y="770" />
              <mxPoint x="295" y="770" />
            </Array>
          </mxGeometry>
        </mxCell>
        <mxCell id="SbOnOfFyA7kID5ACk3es-30" value="Beagle" style="rounded=1;whiteSpace=wrap;html=1;" parent="1" vertex="1">
          <mxGeometry x="360" y="630" width="120" height="60" as="geometry" />
        </mxCell>
        <mxCell id="SbOnOfFyA7kID5ACk3es-35" style="edgeStyle=orthogonalEdgeStyle;rounded=0;orthogonalLoop=1;jettySize=auto;html=1;exitX=0.5;exitY=0;exitDx=0;exitDy=0;entryX=0.5;entryY=1;entryDx=0;entryDy=0;" parent="1" source="SbOnOfFyA7kID5ACk3es-31" target="SbOnOfFyA7kID5ACk3es-30" edge="1">
          <mxGeometry relative="1" as="geometry" />
        </mxCell>
        <mxCell id="SbOnOfFyA7kID5ACk3es-31" value="3 AA Battery Cell&lt;br&gt;(~4.5 V)" style="rounded=1;whiteSpace=wrap;html=1;" parent="1" vertex="1">
          <mxGeometry x="490" y="795" width="120" height="60" as="geometry" />
        </mxCell>
        <mxCell id="SbOnOfFyA7kID5ACk3es-34" value="4.5V 30mA" style="text;html=1;align=center;verticalAlign=middle;whiteSpace=wrap;rounded=0;" parent="1" vertex="1">
          <mxGeometry x="310" y="750" width="90" height="30" as="geometry" />
        </mxCell>
        <mxCell id="SbOnOfFyA7kID5ACk3es-36" value="4.5 V" style="text;html=1;align=center;verticalAlign=middle;whiteSpace=wrap;rounded=0;" parent="1" vertex="1">
          <mxGeometry x="490" y="765" width="60" height="30" as="geometry" />
        </mxCell>
        <mxCell id="SbOnOfFyA7kID5ACk3es-46" value="Push Button x6" style="rounded=1;whiteSpace=wrap;html=1;" parent="1" vertex="1">
          <mxGeometry x="380" y="310" width="80" height="50" as="geometry" />
        </mxCell>
        <mxCell id="SbOnOfFyA7kID5ACk3es-48" value="GPIO Input" style="text;html=1;align=center;verticalAlign=middle;whiteSpace=wrap;rounded=0;" parent="1" vertex="1">
          <mxGeometry x="425" y="270" width="60" height="30" as="geometry" />
        </mxCell>
        <mxCell id="SbOnOfFyA7kID5ACk3es-59" value="5 Volt&lt;div&gt;70mA to 260mA&lt;/div&gt;" style="text;html=1;align=center;verticalAlign=middle;whiteSpace=wrap;rounded=0;" parent="1" vertex="1">
          <mxGeometry x="530" y="390" width="90" height="30" as="geometry" />
        </mxCell>
        <mxCell id="SbOnOfFyA7kID5ACk3es-63" value="Push Button x6" style="rounded=1;whiteSpace=wrap;html=1;" parent="1" vertex="1">
          <mxGeometry x="230" y="705" width="80" height="50" as="geometry" />
        </mxCell>
        <mxCell id="SbOnOfFyA7kID5ACk3es-65" value="3.3V" style="text;html=1;align=center;verticalAlign=middle;whiteSpace=wrap;rounded=0;" parent="1" vertex="1">
          <mxGeometry x="240" y="755" width="60" height="30" as="geometry" />
        </mxCell>
        <mxCell id="SbOnOfFyA7kID5ACk3es-79" value="" style="rounded=1;whiteSpace=wrap;html=1;fillColor=none;dashed=1;" parent="1" vertex="1">
          <mxGeometry x="205" y="40" width="125" height="150" as="geometry" />
        </mxCell>
        <mxCell id="SbOnOfFyA7kID5ACk3es-80" value="I2C Bus #2" style="text;html=1;align=center;verticalAlign=middle;whiteSpace=wrap;rounded=0;" parent="1" vertex="1">
          <mxGeometry x="230" y="10" width="70" height="30" as="geometry" />
        </mxCell>
        <mxCell id="SbOnOfFyA7kID5ACk3es-81" value="" style="rounded=1;whiteSpace=wrap;html=1;fillColor=none;dashed=1;" parent="1" vertex="1">
          <mxGeometry x="560" y="620" width="130" height="150" as="geometry" />
        </mxCell>
        <mxCell id="SbOnOfFyA7kID5ACk3es-82" value="OLED SCREEN #3" style="rounded=1;whiteSpace=wrap;html=1;" parent="1" vertex="1">
          <mxGeometry x="590" y="700" width="70" height="40" as="geometry" />
        </mxCell>
        <mxCell id="SbOnOfFyA7kID5ACk3es-83" value="Gyro Scope&lt;br&gt;(MPU6050)" style="rounded=1;whiteSpace=wrap;html=1;" parent="1" vertex="1">
          <mxGeometry x="590" y="640" width="80" height="40" as="geometry" />
        </mxCell>
        <mxCell id="SbOnOfFyA7kID5ACk3es-84" value="I2C Bus #1 3.3V 13.9mA" style="text;html=1;align=center;verticalAlign=middle;whiteSpace=wrap;rounded=0;" parent="1" vertex="1">
          <mxGeometry x="590" y="590" width="80" height="30" as="geometry" />
        </mxCell>
        <mxCell id="SbOnOfFyA7kID5ACk3es-103" value="OLED SCREEN #1" style="rounded=1;whiteSpace=wrap;html=1;" parent="1" vertex="1">
          <mxGeometry x="260" y="560" width="70" height="40" as="geometry" />
        </mxCell>
        <mxCell id="SbOnOfFyA7kID5ACk3es-104" value="OLED SCREEN #2" style="rounded=1;whiteSpace=wrap;html=1;" parent="1" vertex="1">
          <mxGeometry x="260" y="500" width="70" height="40" as="geometry" />
        </mxCell>
        <mxCell id="SbOnOfFyA7kID5ACk3es-106" value="I2C Bus #2 3.3V 20mA" style="text;html=1;align=center;verticalAlign=middle;whiteSpace=wrap;rounded=0;" parent="1" vertex="1">
          <mxGeometry x="260" y="440" width="70" height="30" as="geometry" />
        </mxCell>
        <mxCell id="SbOnOfFyA7kID5ACk3es-112" value="10mA" style="text;html=1;align=center;verticalAlign=middle;whiteSpace=wrap;rounded=0;" parent="1" vertex="1">
          <mxGeometry x="260" y="480" width="60" height="30" as="geometry" />
        </mxCell>
        <mxCell id="SbOnOfFyA7kID5ACk3es-113" value="10mA" style="text;html=1;align=center;verticalAlign=middle;whiteSpace=wrap;rounded=0;" parent="1" vertex="1">
          <mxGeometry x="260" y="540" width="60" height="30" as="geometry" />
        </mxCell>
        <mxCell id="SbOnOfFyA7kID5ACk3es-114" value="10mA" style="text;html=1;align=center;verticalAlign=middle;whiteSpace=wrap;rounded=0;" parent="1" vertex="1">
          <mxGeometry x="590" y="680" width="60" height="30" as="geometry" />
        </mxCell>
        <mxCell id="SbOnOfFyA7kID5ACk3es-115" value="3.9mA" style="text;html=1;align=center;verticalAlign=middle;whiteSpace=wrap;rounded=0;" parent="1" vertex="1">
          <mxGeometry x="590" y="620" width="60" height="30" as="geometry" />
        </mxCell>
        <mxCell id="SbOnOfFyA7kID5ACk3es-118" value="Motors" style="text;html=1;align=center;verticalAlign=middle;whiteSpace=wrap;rounded=0;" parent="1" vertex="1">
          <mxGeometry x="525" y="-30" width="80" height="30" as="geometry" />
        </mxCell>
        <mxCell id="AStizRgjIIhvbvNj2Oiw-3" value="" style="rounded=1;whiteSpace=wrap;html=1;fillColor=none;dashed=1;" parent="1" vertex="1">
          <mxGeometry x="470" y="420" width="210" height="130" as="geometry" />
        </mxCell>
        <mxCell id="AStizRgjIIhvbvNj2Oiw-4" value="DC Motor 1" style="rounded=1;whiteSpace=wrap;html=1;" parent="1" vertex="1">
          <mxGeometry x="595" y="440" width="60" height="40" as="geometry" />
        </mxCell>
        <mxCell id="AStizRgjIIhvbvNj2Oiw-5" value="DC Motor 2" style="rounded=1;whiteSpace=wrap;html=1;" parent="1" vertex="1">
          <mxGeometry x="595" y="490" width="60" height="40" as="geometry" />
        </mxCell>
        <mxCell id="AStizRgjIIhvbvNj2Oiw-6" style="edgeStyle=orthogonalEdgeStyle;rounded=0;orthogonalLoop=1;jettySize=auto;html=1;exitX=1;exitY=0.5;exitDx=0;exitDy=0;entryX=0;entryY=0.5;entryDx=0;entryDy=0;" parent="1" source="AStizRgjIIhvbvNj2Oiw-8" target="AStizRgjIIhvbvNj2Oiw-5" edge="1">
          <mxGeometry relative="1" as="geometry" />
        </mxCell>
        <mxCell id="AStizRgjIIhvbvNj2Oiw-7" style="edgeStyle=orthogonalEdgeStyle;rounded=0;orthogonalLoop=1;jettySize=auto;html=1;exitX=1;exitY=0.5;exitDx=0;exitDy=0;entryX=0;entryY=0.5;entryDx=0;entryDy=0;" parent="1" source="AStizRgjIIhvbvNj2Oiw-8" target="AStizRgjIIhvbvNj2Oiw-4" edge="1">
          <mxGeometry relative="1" as="geometry" />
        </mxCell>
        <mxCell id="AStizRgjIIhvbvNj2Oiw-8" value="H Bridge Driver" style="rounded=1;whiteSpace=wrap;html=1;" parent="1" vertex="1">
          <mxGeometry x="490" y="465" width="70" height="40" as="geometry" />
        </mxCell>
        <mxCell id="AStizRgjIIhvbvNj2Oiw-11" value="Buzzer&lt;div&gt;(KC1206)&lt;/div&gt;" style="rounded=1;whiteSpace=wrap;html=1;" parent="1" vertex="1">
          <mxGeometry x="270" y="290" width="60" height="50" as="geometry" />
        </mxCell>
        <mxCell id="AStizRgjIIhvbvNj2Oiw-13" value="" style="rounded=1;whiteSpace=wrap;html=1;fillColor=none;dashed=1;" parent="1" vertex="1">
          <mxGeometry x="190" y="270" width="160" height="90" as="geometry" />
        </mxCell>
        <mxCell id="AStizRgjIIhvbvNj2Oiw-14" value="Buzzer&lt;div&gt;(KC1206)&lt;/div&gt;" style="rounded=1;whiteSpace=wrap;html=1;" parent="1" vertex="1">
          <mxGeometry x="265" y="815" width="60" height="50" as="geometry" />
        </mxCell>
        <mxCell id="AStizRgjIIhvbvNj2Oiw-15" value="Buzzer&lt;div&gt;(KC1206)&lt;/div&gt;" style="rounded=1;whiteSpace=wrap;html=1;" parent="1" vertex="1">
          <mxGeometry x="330" y="815" width="60" height="50" as="geometry" />
        </mxCell>
        <mxCell id="gslPH5g92RQ_Tg9tqRiB-9" style="edgeStyle=orthogonalEdgeStyle;rounded=0;orthogonalLoop=1;jettySize=auto;html=1;exitX=0;exitY=0.5;exitDx=0;exitDy=0;entryX=0.5;entryY=0;entryDx=0;entryDy=0;" edge="1" parent="1" source="gslPH5g92RQ_Tg9tqRiB-1" target="gslPH5g92RQ_Tg9tqRiB-2">
          <mxGeometry relative="1" as="geometry" />
        </mxCell>
        <mxCell id="gslPH5g92RQ_Tg9tqRiB-1" value="Uni-Cat" style="rounded=1;whiteSpace=wrap;html=1;" vertex="1" parent="1">
          <mxGeometry x="1080" y="90" width="120" height="60" as="geometry" />
        </mxCell>
        <mxCell id="gslPH5g92RQ_Tg9tqRiB-10" style="edgeStyle=orthogonalEdgeStyle;rounded=0;orthogonalLoop=1;jettySize=auto;html=1;exitX=0.5;exitY=1;exitDx=0;exitDy=0;entryX=0.5;entryY=0;entryDx=0;entryDy=0;" edge="1" parent="1" source="gslPH5g92RQ_Tg9tqRiB-2" target="gslPH5g92RQ_Tg9tqRiB-4">
          <mxGeometry relative="1" as="geometry" />
        </mxCell>
        <mxCell id="gslPH5g92RQ_Tg9tqRiB-2" value="Services" style="rounded=1;whiteSpace=wrap;html=1;" vertex="1" parent="1">
          <mxGeometry x="890" y="180" width="120" height="60" as="geometry" />
        </mxCell>
        <mxCell id="gslPH5g92RQ_Tg9tqRiB-8" style="edgeStyle=orthogonalEdgeStyle;rounded=0;orthogonalLoop=1;jettySize=auto;html=1;exitX=0.5;exitY=0;exitDx=0;exitDy=0;entryX=1;entryY=0.5;entryDx=0;entryDy=0;" edge="1" parent="1" source="gslPH5g92RQ_Tg9tqRiB-3" target="gslPH5g92RQ_Tg9tqRiB-1">
          <mxGeometry relative="1" as="geometry" />
        </mxCell>
        <mxCell id="gslPH5g92RQ_Tg9tqRiB-22" style="edgeStyle=orthogonalEdgeStyle;rounded=0;orthogonalLoop=1;jettySize=auto;html=1;exitX=0.5;exitY=1;exitDx=0;exitDy=0;entryX=1;entryY=0.5;entryDx=0;entryDy=0;" edge="1" parent="1" source="gslPH5g92RQ_Tg9tqRiB-3" target="gslPH5g92RQ_Tg9tqRiB-16">
          <mxGeometry relative="1" as="geometry" />
        </mxCell>
        <mxCell id="gslPH5g92RQ_Tg9tqRiB-3" value="Plugins" style="rounded=1;whiteSpace=wrap;html=1;" vertex="1" parent="1">
          <mxGeometry x="1215" y="180" width="120" height="60" as="geometry" />
        </mxCell>
        <mxCell id="gslPH5g92RQ_Tg9tqRiB-23" style="edgeStyle=orthogonalEdgeStyle;rounded=0;orthogonalLoop=1;jettySize=auto;html=1;exitX=0.5;exitY=1;exitDx=0;exitDy=0;entryX=0.5;entryY=0;entryDx=0;entryDy=0;" edge="1" parent="1" source="gslPH5g92RQ_Tg9tqRiB-4" target="gslPH5g92RQ_Tg9tqRiB-5">
          <mxGeometry relative="1" as="geometry" />
        </mxCell>
        <mxCell id="gslPH5g92RQ_Tg9tqRiB-4" value="Service" style="rounded=1;whiteSpace=wrap;html=1;" vertex="1" parent="1">
          <mxGeometry x="840" y="290" width="80" height="55" as="geometry" />
        </mxCell>
        <mxCell id="gslPH5g92RQ_Tg9tqRiB-5" value="Driver" style="rounded=1;whiteSpace=wrap;html=1;" vertex="1" parent="1">
          <mxGeometry x="840" y="380" width="80" height="50" as="geometry" />
        </mxCell>
        <mxCell id="gslPH5g92RQ_Tg9tqRiB-15" value="Low level control" style="text;html=1;align=center;verticalAlign=middle;whiteSpace=wrap;rounded=0;" vertex="1" parent="1">
          <mxGeometry x="930" y="395" width="60" height="30" as="geometry" />
        </mxCell>
        <mxCell id="gslPH5g92RQ_Tg9tqRiB-16" value="Driver" style="rounded=1;whiteSpace=wrap;html=1;" vertex="1" parent="1">
          <mxGeometry x="1110" y="290" width="120" height="60" as="geometry" />
        </mxCell>
        <mxCell id="gslPH5g92RQ_Tg9tqRiB-20" value="Control" style="text;html=1;align=center;verticalAlign=middle;whiteSpace=wrap;rounded=0;" vertex="1" parent="1">
          <mxGeometry x="930" y="297.5" width="60" height="40" as="geometry" />
        </mxCell>
        <mxCell id="gslPH5g92RQ_Tg9tqRiB-21" value="Data Requests" style="text;html=1;align=center;verticalAlign=middle;whiteSpace=wrap;rounded=0;" vertex="1" parent="1">
          <mxGeometry x="1290" y="280" width="60" height="30" as="geometry" />
        </mxCell>
      </root>
    </mxGraphModel>
  </diagram>
</mxfile>
